<svg width="640" height="420" viewBox="0 0 640 420" fill="none" xmlns="http://www.w3.org/2000/svg">
  <rect width="640" height="420" rx="36" fill="#EAF5FF"/>
  <rect x="60" y="90" width="520" height="240" rx="28" fill="#FFFFFF"/>
  <rect x="100" y="122" width="180" height="116" rx="20" fill="#0D6EFD"/>
  <rect x="320" y="130" width="150" height="86" rx="20" fill="#2FB7FF"/>
  <rect x="120" y="250" width="330" height="20" rx="10" fill="#DCEEFF"/>
  <rect x="100" y="280" width="240" height="18" rx="9" fill="#DCEEFF"/>
  <circle cx="180" cy="286" r="46" fill="#0F172A"/>
  <circle cx="430" cy="286" r="46" fill="#0F172A"/>
  <circle cx="180" cy="286" r="22" fill="#F8FAFC"/>
  <circle cx="430" cy="286" r="22" fill="#F8FAFC"/>
  <path d="M195 190H308C320.15 190 330 199.85 330 212V242H195V190Z" fill="#2563EB"/>
  <path d="M332 194H392C404.15 194 414 203.85 414 216V242H332V194Z" fill="#38BDF8"/>
  <rect x="286" y="190" width="28" height="52" rx="10" fill="#1D4ED8"/>
  <rect x="140" y="68" width="220" height="28" rx="14" fill="#0F172A" opacity="0.1"/>
</svg>